<mxfile host="app.diagrams.net" modified="2024-01-24T07:16:11.105Z" agent="Mozilla/5.0 (X11; Ubuntu; Linux x86_64; rv:88.0) Gecko/20100101 Firefox/88.0" version="21.8.2" etag="4qZMPrcOvV_-34SzBdEL" type="github">
  <diagram name="Page-1" id="4wrOXxWjByS4SgQlsCJA">
    <mxGraphModel>
      <root>
        <mxCell id="0" />
        <mxCell id="1" parent="0" />
      </root>
    </mxGraphModel>
  </diagram>
</mxfile>
